0
SECTION
2
HEADER
9
$INSUNITS
70
4
9
$ACADVER
1
AC1014
9
$HANDSEED
5
FFFF
0
ENDSEC
0
SECTION
2
TABLES
0
TABLE
2
VPORT
5
8
100
AcDbSymbolTable
0
ENDTAB
0
TABLE
2
LTYPE
5
5
100
AcDbSymbolTable
0
LTYPE
5
14
100
AcDbSymbolTableRecord
100
AcDbLinetypeTableRecord
2
BYBLOCK
70
0
0
LTYPE
5
15
100
AcDbSymbolTableRecord
100
AcDbLinetypeTableRecord
2
BYLAYER
70
0
0
ENDTAB
0
TABLE
2
LAYER
5
2
100
AcDbSymbolTable
70
2
0
LAYER
5
50
100
AcDbSymbolTableRecord
100
AcDbLayerTableRecord
2
0
70
0
6
CONTINUOUS
0
ENDTAB
0
TABLE
2
STYLE
5
3
100
AcDbSymbolTable
70
1
0
STYLE
5
11
100
AcDbSymbolTableRecord
100
AcDbTextStyleTableRecord
2
STANDARD
70
0
0
ENDTAB
0
TABLE
2
VIEW
5
6
100
AcDbSymbolTable
70
0
0
ENDTAB
0
TABLE
2
UCS
5
7
100
AcDbSymbolTable
70
0
0
ENDTAB
0
TABLE
2
APPID
5
9
100
AcDbSymbolTable
70
2
0
APPID
5
12
100
AcDbSymbolTableRecord
100
AcDbRegAppTableRecord
2
ACAD
70
0
0
ENDTAB
0
TABLE
2
DIMSTYLE
5
A
100
AcDbSymbolTable
70
1
0
ENDTAB
0
TABLE
2
BLOCK_RECORD
5
1
100
AcDbSymbolTable
70
1
0
BLOCK_RECORD
5
1F
100
AcDbSymbolTableRecord
100
AcDbBlockTableRecord
2
*MODEL_SPACE
0
BLOCK_RECORD
5
1B
100
AcDbSymbolTableRecord
100
AcDbBlockTableRecord
2
*PAPER_SPACE
0
ENDTAB
0
ENDSEC
0
SECTION
2
BLOCKS
0
BLOCK
5
20
100
AcDbEntity
100
AcDbBlockBegin
2
*MODEL_SPACE
0
ENDBLK
5
21
100
AcDbEntity
100
AcDbBlockEnd
0
BLOCK
5
1C
100
AcDbEntity
100
AcDbBlockBegin
2
*PAPER_SPACE
0
ENDBLK
5
1D
100
AcDbEntity
100
AcDbBlockEnd
0
ENDSEC
0
SECTION
2
ENTITIES
0
LWPOLYLINE
5
100
100
AcDbEntity
8
0
100
AcDbPolyline
90
16
70
1
43
0.0
10
28.499846920367297
20
132.50000000000097
10
28.499846920367304
20
139.50000000000099
10
-126.436698586202
20
139.50000000000099
10
-126.436698586202
20
113.00000000000099
10
-140
20
113.00000000000099
10
-140
20
-112.99999999999901
10
-126.436698586202
20
-112.99999999999901
10
-126.436698586202
20
-139.49999999999901
10
125.43669858620198
20
-139.49999999999901
10
125.436698586202
20
-112.99999999999901
10
139
20
-112.99999999999901
10
139
20
113.00000000000099
10
125.436698586202
20
113.00000000000099
10
125.436698586202
20
139.50000000000099
10
42.499999999999893
20
139.50000000000099
10
42.499999999999893
20
132.50000000000097
0
CIRCLE
5
101
100
AcDbEntity
8
0
100
AcDbCircle
10
-0.50000000000012301
20
79.999996185302905
30
0
40
7.5
210
-0
220
0
230
1
0
LWPOLYLINE
5
102
100
AcDbEntity
8
0
100
AcDbPolyline
90
4
70
1
43
0.0
10
44.817838879836998
20
-29.050161120158112
42
0.99999999999999989
10
44.817838879836998
20
-32.450161120158107
10
54.817838879836998
20
-32.450161120158107
42
0.99999999999999989
10
54.817838879836998
20
-29.050161120158112
0
LWPOLYLINE
5
103
100
AcDbEntity
8
0
100
AcDbPolyline
90
4
70
1
43
0.0
10
44.817838879836998
20
54.949838879841899
10
54.817838879836998
20
54.949838879841899
42
-0.99999999999999989
10
54.817838879836998
20
51.5498388798419
10
44.817838879836998
20
51.5498388798419
42
-0.99999999999999989
0
LWPOLYLINE
5
104
100
AcDbEntity
8
0
100
AcDbPolyline
90
4
70
1
43
0.0
10
-55.182161120163009
20
54.949838879841899
42
0.99999999999999989
10
-55.182161120163009
20
51.5498388798419
10
-45.182161120163002
20
51.5498388798419
42
0.99999999999999989
10
-45.182161120163002
20
54.949838879841899
0
LWPOLYLINE
5
105
100
AcDbEntity
8
0
100
AcDbPolyline
90
4
70
1
43
0.0
10
-55.182161120163009
20
-29.050161120158112
42
0.99999999999999989
10
-55.182161120163009
20
-32.450161120158107
10
-45.182161120163002
20
-32.450161120158107
42
0.99999999999999989
10
-45.182161120163002
20
-29.050161120158112
0
ENDSEC
0
SECTION
2
OBJECTS
0
DICTIONARY
5
C
100
AcDbDictionary
3
ACAD_GROUP
350
D
3
ACAD_MLINESTYLE
350
17
0
DICTIONARY
5
D
100
AcDbDictionary
0
DICTIONARY
5
1A
330
C
100
AcDbDictionary
0
DICTIONARY
5
17
100
AcDbDictionary
0
ENDSEC
0
EOF
